# xmcd CD database file
#
# Track frame offsets:
#	150
#	20378
#	35073
#	56345
#	74163
#	96298
#	116420
#	137068
#	155840
#	170303
#	189373
#	207143
#	229585
#	247828
#	267368
#
# Disc length: 3742 seconds
#
# Revision: 0
# Processed by: cddbd v1.5.1PL0 Copyright (c) Steve Scherf et al.
# Submitted via: CDex 1.51
#
DISCID=ce0e9c0f
DTITLE=Bon-Bon Blanco - B3 Master Pieces 2002-2004 (初回生産限定盤) [LIMITED EDITION]
DYEAR=2004
DGENRE=Latin
TTITLE0=BON VOYAGE!
TTITLE1=White
TTITLE2=この手につかんだ未来地図（ストーリー）
TTITLE3=愛のナースカーニバル
TTITLE4=恋の課外授業
TTITLE5=愛 WANT YOU!!
TTITLE6=バカンスの恋
TTITLE7=涙のハリケーン
TTITLE8=ありがとう I Love you,yet…
TTITLE9=だって、女の子なんだもん!
TTITLE10=We are B3〜放課後編〜
TTITLE11=The sea of the time
TTITLE12=夏がきたぁ!!〜VIVA SUMMER TIME☆〜
TTITLE13=うれしい!たのしい!大好き!
TTITLE14=COME TO ME
EXTD=YEAR: 2004
EXTT0=
EXTT1=
EXTT2=
EXTT3=
EXTT4=
EXTT5=
EXTT6=
EXTT7=
EXTT8=
EXTT9=
EXTT10=
EXTT11=
EXTT12=
EXTT13=
EXTT14=
PLAYORDER=
